<svg xmlns="http://www.w3.org/2000/svg" viewBox="0 0 154.98 187"><title>cruab</title><g id="Layer_2" data-name="Layer 2"><g id="Layer_1-2" data-name="Layer 1"><g id="Layer_1-2-2" data-name="Layer 1-2"><path d="M64.8,166.47,62.07,144l-4.24-35.18,5.24,5.47,20,13.51,8,8.1,3,5.4,4,10.8,1,8.11-2,9-2,4.5-2,3.6-4,4.5-3,2.7h-4l-8-2.7-2.85-2.09c-.61-1.62-1.32-3.33-2.15-5.11A70.4,70.4,0,0,0,65,167.16Z"/><path d="M91.07,87.32a2.44,2.44,0,0,0,1.29-.84c.63-.86.07-1.76.71-2.76a2.71,2.71,0,0,1,1-.9,5,5,0,0,1,3-1.8,5.7,5.7,0,0,1,4.51,1.21l8.49-2.11,27-12.6.81-1.29.45-5.46-1.26-.45-3-.9L102.61,44.48C69.76,48.86,49.91,49.64,17.07,54c0,.2-6.71,4.23-7,4.5l-4,3.6c-1,.9-1.12.71-3,3.6-1.2,1.83-2.23,3.36-3,4.5l7,7.2,51.31,85.27,7.45,5.9Q62.89,139.66,60,110.73c-.43-.42-1.09-1-1.9-1.8-2.49-2.32-4.37-4-5-4.5-4.07-3.56-7.22-6.31-10-9.9a38,38,0,0,1-4.49-7.4L37.07,75.62l7-17.1,28-2.7,13,7.2,4,17.1.36,2.2L89,87.77l0,0,1,.42Z"/><path d="M61,133.1c.18.24.39.47.56.72C63,135.89,64.47,138,66,140a29.88,29.88,0,0,0,4.51,5.12A18.78,18.78,0,0,0,76,148.59a12.16,12.16,0,0,1,4.16,2.72c1.25,1.26,2.43,2.58,3.65,3.87.67.7,1.33,1.4,2.06,2.08a4.25,4.25,0,0,0,4.39,1c1.64-.49,3.26-1,4.85-1.6a2.16,2.16,0,0,0,1.62-2.4c-.78-6.52-2.42-12.81-6.49-18.39a29.31,29.31,0,0,0-4.07-4.5c-.64-.57-1.28-1.16-1.92-1.74a7.27,7.27,0,0,0-.74-.61,2.07,2.07,0,0,0-2.69.17,1.58,1.58,0,0,0-.12.15,2.89,2.89,0,0,0-.64,1.24A7.16,7.16,0,0,0,79.9,134c.2.84,0,1.28-.57,1.57a1.62,1.62,0,0,1-1.88-.37,26.49,26.49,0,0,0-12.08-5.7c-1.46-.33-3-.43-4.49-.63l-.6-.07-.26-2.2a13.1,13.1,0,0,1,3.19.18,30.43,30.43,0,0,1,8.63,2.69,13.85,13.85,0,0,1,3.81,2.19,2.22,2.22,0,0,0,.52.34c.63.31,1.15.26,1.48-.3.71-1.2,1.38-2.43,2-3.68a1.84,1.84,0,0,0-.7-2.29,4.3,4.3,0,0,0-.81-.52,79.35,79.35,0,0,1-13.31-8.81c-1-.83-2-1.7-3.08-2.55a5.19,5.19,0,0,0-.69-.52,1,1,0,0,0-1.68.42,4.66,4.66,0,0,0-.33.85,2.82,2.82,0,0,1-.36.88c-.28-2.22-.56-4.44-.86-6.84l.89.68A148.21,148.21,0,0,0,72,119.28c1.43.93,2.88,1.82,4.35,2.69a55.53,55.53,0,0,1,15,12.51,36.08,36.08,0,0,1,7,14.11,48,48,0,0,1,1.54,11.85,26.44,26.44,0,0,1-5.61,16.8c-1.38,1.77-2.63,3.61-4,5.41a2.4,2.4,0,0,1-.8.75c-2.41,1.2-4.83,2.4-7.32,3.6-.28-.17-.57-.36-.89-.54-1.47-.8-2.93-1.64-4.42-2.42A10,10,0,0,0,75,183.4a4.87,4.87,0,0,1-3.6-3.08c-.13-.36-.26-.72-.44-1.2.4.07.68.1,1,.16,1.33.31,2.67.66,4,.95a8.49,8.49,0,0,0,2.8.05c-.23-.28-.38-.47-.55-.65-1.9-2-3.81-4-5.7-6.06a37,37,0,0,0-6.57-5.4c-.74-.49-1.24-1-1.16-1.87a3.33,3.33,0,0,0-.07-.7c1.22.71,2.35,1.43,3.55,2.06a16.54,16.54,0,0,0,3.84,1.49c-1.19-7.76-2.4-15.42-5.92-22.56l-.23,0a15.2,15.2,0,0,0,.09,1.65c.22,1.57.49,3.13.72,4.7a12.84,12.84,0,0,1,.09,4.24,2.5,2.5,0,0,1-.39,1q-.18-.43-.33-.9c-.61-2.47-1.23-5-1.81-7.43a10.93,10.93,0,0,0-1.82-4.24,1.85,1.85,0,0,1-.32-.92c-.4-3.23-.78-6.46-1.16-9.69-.08-.62-.16-1.24-.23-1.86Zm15.77,18a3.44,3.44,0,0,0,.48,2.71,39.47,39.47,0,0,1,5.22,24,6.46,6.46,0,0,1-1,3.29,1.27,1.27,0,0,0-.18.37c-.29.8-.06,1.33.82,1.53a17.24,17.24,0,0,0,3,.42A2.72,2.72,0,0,0,88,181.7c.1-.23.15-.47.24-.71a3.85,3.85,0,0,1,1.6-2.12A13.92,13.92,0,0,0,96,170.56a45.76,45.76,0,0,0,1.27-6.94,15,15,0,0,0,.19-2.12c0-1.41-.89-2.17-2.43-2.19a7.93,7.93,0,0,0-1.54.12,17,17,0,0,0-8.61,4.12,4.32,4.32,0,0,1-.5.33,2.07,2.07,0,0,1,0-.35,7.6,7.6,0,0,0-1.71-6.8,16.78,16.78,0,0,0-1.53-1.63c-.94-.88-1.94-1.73-2.9-2.59-.45-.43-.9-.86-1.48-1.38Zm3.3,26.22v-.47a68,68,0,0,0-2-11.38,45.36,45.36,0,0,0-6.79-14.23c-.16-.22-.34-.42-.51-.64a.38.38,0,0,0-.1.32c.62,2.69,1.26,5.39,1.86,8.09A58.77,58.77,0,0,1,74,167.36,16.13,16.13,0,0,0,74.4,170c.79,3.06,2.91,5.34,5.44,7.37,0,0,.11,0,.23,0Z"/><polygon points="116.3 75.72 131.76 68.91 138.07 71.12 149.07 83.72 147.07 90.93 144.07 95.43 138.07 97.23 127.07 89.13 116.07 78.32 116.3 75.72"/><path d="M129.63,69.85l8.24-3.64a14.79,14.79,0,0,0,.39,1.47,6.71,6.71,0,0,0,2,2.72,84,84,0,0,1,7.93,8.43c.39.45.78.91,1.19,1.34a5.39,5.39,0,0,0,.92.8,1.19,1.19,0,0,0,1.9-.3,3.63,3.63,0,0,0,.54-1,6.17,6.17,0,0,1,1.42-2.09c.11.27.2.45.26.65a14,14,0,0,1-2.5,12.8A25.34,25.34,0,0,1,147,96a15.08,15.08,0,0,1-5.3,2.6,27.39,27.39,0,0,0-6.38,2.53,19.24,19.24,0,0,0-4,3,6.55,6.55,0,0,1-1.09.86,1.22,1.22,0,0,1-1.49-.18.85.85,0,0,1-.12-1.2,6.63,6.63,0,0,1,.49-.69,8.36,8.36,0,0,0,1.78-6.12,8.66,8.66,0,0,0-1.4-3.52,17.47,17.47,0,0,0-3.31-3.68,32.23,32.23,0,0,0-7.81-5.17,19,19,0,0,0-9.88-1.56,4.56,4.56,0,0,0-3.84,2.4,4.2,4.2,0,0,1-.61.9,1.2,1.2,0,0,1-1.29.38,1.16,1.16,0,0,1-.94-1,3.07,3.07,0,0,1,0-.74,3.49,3.49,0,0,0-.3-2.51c.53-.24,1-.49,1.6-.73,4.4-1.94,8.82-3.87,13.21-5.84a1.69,1.69,0,0,1,1.59,0A23,23,0,0,1,126,82c.83,1,1.59,2.06,2.32,3.13a25.94,25.94,0,0,0,3.85,4.55,15.37,15.37,0,0,0,6.75,3.55,12.16,12.16,0,0,1,1.43.51c.38.15.76.33,1.16.46a1.1,1.1,0,0,0,1.24-.26,1.06,1.06,0,0,0,.32-1.27,3.11,3.11,0,0,0-.68-.86A13.5,13.5,0,0,0,139.66,90c-2-1-3.83-2.21-5.69-3.39a33.47,33.47,0,0,1-3-2.16,14.79,14.79,0,0,1-3.86-4.72,15.32,15.32,0,0,0-3.71-4.8c-.58-.49-1.24-.93-1.94-1.44.84-.38,1.61-.75,2.41-1a1.12,1.12,0,0,1,.74.14,12.23,12.23,0,0,1,4.22,3.17,46,46,0,0,0,4.94,5.24,17.61,17.61,0,0,0,7.68,4c.22,0,.45.07.72.11a1.25,1.25,0,0,0-.32-1.11c-.16-.23-.36-.44-.53-.66-.44-.6-.44-1,0-1.39a1.23,1.23,0,0,1,1.61-.18l.1.07c.44.3.8.67,1.22,1a1.64,1.64,0,0,0,1.58.34c-.24-.29-.41-.53-.61-.76a86.82,86.82,0,0,0-7-7.09c-1.63-1.54-3.24-3.1-4.85-4.66-.75-.73-1.18-.8-1.94-.27C130.51,71,130.32,71,129.63,69.85Z"/><path d="M92.32,86.53,90,88.37l-1-.6,3.18-1.4Z"/><polyline points="42.07 36.91 30.07 43.21 20.07 52.22 10.07 61.22 9.98 64.54 33.47 83.1 38.07 68.42 51.07 54.91 71.07 54.02 83.07 63.02 84.07 66.62 83.07 72.02 85.07 75.62 92.45 81 111.88 72.43 136.57 61.55 82.07 33.31 66.07 32.41"/><path d="M20.25,49.35a45.33,45.33,0,0,0,6.2-4.45l10.31-6.32a25,25,0,0,0,2.66-1.42c.52-.29,1-.64,1.48-1l10.55-6a27.83,27.83,0,0,1,15.3-3.38h.08a8.86,8.86,0,0,0,2.24-.2l8.09.45a70.2,70.2,0,0,1,18.91,4.48,65.16,65.16,0,0,1,17.5,10.19,14.78,14.78,0,0,1,3.52,2.08v0a2.44,2.44,0,0,0,2.48.35c.89-.34,3.49,0,3.49-8.14s-11-36-11-36l17,29.71c1.77,3.3,3,9.06,4,12.6l1.22,12c.26.13.53.25.8.4a1.57,1.57,0,0,1,.93,1.45,14,14,0,0,0,.1,1.71,3.11,3.11,0,0,0,1.95,2.69,1.45,1.45,0,0,1,.26.21L126.25,66.1c-.15-.11-.27-.19-.37-.28A43.21,43.21,0,0,0,115.16,59c-3.36-1.57-6.69-3.2-10-4.75a42.78,42.78,0,0,0-9.56-3.32c-.65-.14-1.29-.25-1.94-.38,0,0-.1-.07-.15-.11,5.31-.09,10.17,1.49,15.08,3.13l-.32-.28a2.25,2.25,0,0,0-.36-.24c-2.15-1.22-4.27-2.5-6.47-3.65a118.69,118.69,0,0,0-14-6.3c-1-.36-2-.65-3.13-1,.06.4.08.67.14.92.29,1.2.62,2.4.89,3.6a4,4,0,0,1-1.48,4.23,11.33,11.33,0,0,0-2.08,2.36,4.61,4.61,0,0,0-.22,5.08,13.24,13.24,0,0,0,2.71,3.28c.34.33.62.73,1,1.08a6.67,6.67,0,0,0,.85.83c1.22,1,1.33,1.63.41,2.83a11.43,11.43,0,0,0-1.94,3.4,4.3,4.3,0,0,0,.94,4.69c1.2,1.23,2.42,2.45,3.69,3.6.89.8,1.89,1.54,2.84,2.31l.81.59-3.36,1.49c-.08-.23-.15-.4-.21-.57a8.78,8.78,0,0,0-3.88-4.92c-.83-.54-1.75-1-2.63-1.45-.46-.22-.9-.46-1.33-.72a1.32,1.32,0,0,1-.58-1.81,14,14,0,0,1,.74-1.3,22.19,22.19,0,0,0,1.33-2.5c.89-2.25.24-4.15-1.87-5.58a11.83,11.83,0,0,0-2.11-1.13,59.94,59.94,0,0,0-12.14-3.58,28.09,28.09,0,0,0-14,1A17.24,17.24,0,0,0,45.17,65a34.75,34.75,0,0,0-4.44,6.85,13,13,0,0,0-1.16,4.85c-.18,1.79-.28,3.6-.55,5.38a21.56,21.56,0,0,0-.38,5.07L28.06,78.82c.7-1.14,2-1.3,3.16-1.67-.23-.11-.38-.2-.54-.26a4.76,4.76,0,0,1-2.91-3.08c-.29-1-.48-2-.73-3-.14-.52-.32-1-.54-1.76a19,19,0,0,0-2.83,6.1,4.6,4.6,0,0,1-1.47-1,.59.59,0,0,1-.07-.53,26.92,26.92,0,0,1,2.52-7.32,9.42,9.42,0,0,0,.84-7.73,55.08,55.08,0,0,0-2-5.5c-.61-1.47-1.45-1.6-2.72-.56a22.17,22.17,0,0,0-6.05,8c-.51,1.11-.89,2.26-1.33,3.4a3.72,3.72,0,0,0-.1,3.17c-1.36-.94,0,.14-5.89-5.78Zm83.66-10.62-.25.59-23.53,0a2.16,2.16,0,0,1,1.56-.18c.6.08,1.2.22,1.78.26.89.06,1.28-.26,1.43-1s-.14-1.35-1.19-1.5a28.56,28.56,0,0,1-4-1c-1.12-.33-2.27-.59-3.42-.85A31.78,31.78,0,0,0,71,34.06a5.32,5.32,0,0,0-4.26,1.45,11.8,11.8,0,0,0-1.25,1.4q-1.52,2.13-3,4.31A3.86,3.86,0,0,0,62,42.27a.83.83,0,0,0,.54,1.09l.1,0a5.52,5.52,0,0,0,1.22.26c2.49.34,5,.6,7.46,1a20.72,20.72,0,0,1,6.63,1.9,4,4,0,0,0,.75.27c1.67.51,3.12-.27,3.28-1.85a3.92,3.92,0,0,0-.16-1.7c-.32-.9-.8-1.76-1.19-2.64C80.44,40.2,80.29,39.75,80.13,39.31Zm-38.81,6.6h.1a2.81,2.81,0,0,0,0,.58A1.19,1.19,0,0,0,43,47.59a7.25,7.25,0,0,0,1.55-.43c.84-.32,1.65-.69,2.48-1a36.82,36.82,0,0,1,7.61-2.4,10.2,10.2,0,0,0,5.25-2.62A16.37,16.37,0,0,0,63.4,36a2.31,2.31,0,0,0,.2-.63c.14-.82-.21-1.25-1.14-1.33a5.3,5.3,0,0,0-1.26.06l-7.42,1.2-8.05,1.3a3,3,0,0,0-2.67,2.33c-.3,1.28-.69,2.55-1,3.83C41.76,43.83,41.55,44.87,41.32,45.91Zm-.2-7c-.47.15-.89.26-1.26.4a24.5,24.5,0,0,0-5.53,3c-1.63,1.09-3.29,2.14-4.92,3.2a14.61,14.61,0,0,0-1.42,1,6.22,6.22,0,0,0-2.31,5.7,25.51,25.51,0,0,0,1.23,4.53,2,2,0,0,0,.44.71,1.3,1.3,0,0,0,2.12-.12,15.25,15.25,0,0,1,2.46-2.8,7.06,7.06,0,0,1,2.31-1.67,8.29,8.29,0,0,0,4.13-3.66,13.68,13.68,0,0,0,1.2-3C40.14,43.8,40.59,41.41,41.12,38.89Zm9.08,8.49c-.22,0-.44.07-.65.12-1.2.38-2.43.7-3.59,1.15-2.43,1-4.84,2-7.24,3a7.62,7.62,0,0,0-1.58.95A3.84,3.84,0,0,0,35.5,56a14.29,14.29,0,0,1,0,2.85c-.14,1,.4,1.5,1.46,1.41a14.18,14.18,0,0,0,2.84-.49,2.2,2.2,0,0,0,1.71-3c-.12-.4-.28-.83-.37-1.26a2.28,2.28,0,0,1,1.63-2.85,18,18,0,0,1,1.81-.54,8.13,8.13,0,0,0,5.67-4.78Z"/><path d="M95.69,53.81a3.22,3.22,0,0,1,.12,1.94,4.24,4.24,0,0,0,.44,3.11c.36.72.78,1.41,1.21,2.1,1,1.57,1.82,3.16,1.33,5,.13.07.18.13.23.12a3,3,0,0,1,2,.56c1,.55,2.1,1,3.16,1.43s2.26.92,3.34,1.47a5.58,5.58,0,0,1,2.72,2.87,1.9,1.9,0,0,1,.14.4,1.5,1.5,0,0,1,0,.3l-2.89,1.3c-2,.89-4.11,1.75-6.11,2.7A2.17,2.17,0,0,1,99,76.92a6.75,6.75,0,0,1-1.33-1.34c-.73-.91-1.38-1.86-2.09-2.77a15,15,0,0,1-3.15-10.22A14.75,14.75,0,0,1,95,54.68Z"/><path d="M111.29,72.71a1.05,1.05,0,0,1,.39-1.24l.86.66Z"/><path d="M52.07,155.74c-.31-.3-.65-.6-1-.9a20.42,20.42,0,0,0-6.93-3.71,10.89,10.89,0,0,0-1.07-4.39,8.86,8.86,0,0,0-2.86-3.69c-3.18-2.18-7.52-1-8.14-.81-2.11-4-5.38-9-4-9.9.6-.39,2.48.29,3,0,1-.58.1-4.73-8-19.81Q14.56,95,6.07,77.42l1-9L22.68,80.84l27.39,25.39,2.51,2.61,6.29,51.62Q55.47,158.1,52.07,155.74Z"/><path d="M18.89,117.51m13.88,24.55A7.27,7.27,0,0,0,29.15,135a4.88,4.88,0,0,0-.79-.4M10.66,98.34a7.89,7.89,0,0,1-2.19-2l-.4-.92a15.77,15.77,0,0,1-2-2.7,14.84,14.84,0,0,1-2-6.31l-2-5.4c-.35-1.46-.69-3-1-4.5q-.6-2.91-1-5.66a1.34,1.34,0,0,1,0-.63,18,18,0,0,1,1.33-2.07A17.93,17.93,0,0,1,3.2,65.63a90.08,90.08,0,0,1,7.59,5.88c-1.25,4-.25,7.68,2,11.15a6.9,6.9,0,0,0,4,3c.89.24,1.78.57,2.67.8s1.44,0,1.54-.91c.14-1.16.1-2.34.14-3.51,0-.67.07-1.35.11-2.16a5.4,5.4,0,0,1,.65.4c1.18,1,2.36,2,3.51,3a5.82,5.82,0,0,0,.45.4c3.55,2.4,6.78,5.2,10.15,7.82,3.81,3,7.56,6,11.36,9a13.41,13.41,0,0,1,5.15,7.89,1.33,1.33,0,0,1,0,.74l-.65-.57a59.33,59.33,0,0,0-17-10.81,21,21,0,0,0-5.08-1.48A5.7,5.7,0,0,0,28.71,96c5.48,9,13.25,15,24.48,17.06l.28,2.22c-1.59-.51-3-1-4.52-1.46a20.66,20.66,0,0,0-4.68-.87c.14.22.22.36.31.49l7.12,9.21a11.61,11.61,0,0,0,2.58,2.51,1,1,0,0,1,.4.59c.24,1.81.45,3.63.53,5.5h-.05a36.11,36.11,0,0,0-5.28-7A18.26,18.26,0,0,0,40,118.94a30.71,30.71,0,0,0-4-.4,9.33,9.33,0,0,1-2.41-.32,3.47,3.47,0,0,0-.71-.16,1.4,1.4,0,0,0-1.64,1,1.07,1.07,0,0,0,0,.56,6.12,6.12,0,0,0,.35.93c.3.68.65,1.35.89,2a21.13,21.13,0,0,0,8.36,10.27,59.29,59.29,0,0,0,9.25,5c2,.91,4.1,1.74,6.27,2.65.07.6.17,1.32.27,2.14a3.6,3.6,0,0,1-.73-.13c-1.47-.59-3-1.11-4.36-1.82-1.78-.92-3.49-2-5.23-3a18.13,18.13,0,0,0-4.72-2.06c-.17,0-.33,0-.66-.11.38.61.68,1.1,1,1.6.61.91,1.27,1.8,1.82,2.74a12.46,12.46,0,0,1,1,2.27,4,4,0,0,1-.31,3,13.89,13.89,0,0,0-.65,1.61,2.5,2.5,0,0,0,1.45,3.27c.25.14.53.25.8.38.82.4.94.76.48,1.63-.63-.26-1.24-.55-1.88-.76-1.7-.57-3.42-1.12-5.14-1.64a29.32,29.32,0,0,1-6.22-2.5c-.16-.11-.56-.72-.89-1.08a5,5,0,0,1-.91-1.46l-8.34-19.9a42,42,0,0,0-.79-4.77,4.76,4.76,0,0,0-.79-1.73L13,101.39l-.68-1.31A4.73,4.73,0,0,0,10.66,98.34Zm29.91,19,.64,0c.21,0,.42,0,.63,0,.65,0,.89-.24.8-.83a2.5,2.5,0,0,0-.48-1.11c-.76-1-1.57-1.87-2.36-2.8a54.14,54.14,0,0,0-5.44-5.7,21.92,21.92,0,0,0-9.87-5.13c-.68-.14-1.33-.3-2-.4-1.21-.16-1.85.57-1.44,1.6a5.66,5.66,0,0,0,.34.7c.75,1.31,1.51,2.61,2.27,3.92,1.12,1.93,2.26,3.85,3.38,5.78a3.78,3.78,0,0,0,2.82,2c1.43.23,2.82.61,4.24.88A38,38,0,0,0,40.57,117.38Zm-11.5-16.52c0-.13-.08-.27-.13-.4-1.78-2.83-3.51-5.67-5.34-8.48a13.68,13.68,0,0,0-1.85-2.19c-1.61-1.64-3.81-1.64-6.08-1.67.08.68.15,1.28.23,1.87A23.42,23.42,0,0,0,17,94.79a7,7,0,0,0,4.82,4.56c1.54.47,3.14.8,4.73,1.14.81.17,1.65.25,2.56.39Z"/><path d="M51.91,153.23c.23.17.45.34.67.53l5.93,6a.91.91,0,0,1,.32.48c.14,1,.25,2,.39,3.1-.32-.22-.52-.34-.69-.48a24.11,24.11,0,0,1-5.38-5.91,7.24,7.24,0,0,0-1-1.15A1.86,1.86,0,0,1,51.91,153.23Z"/></g></g></g></svg>