<svg xmlns="http://www.w3.org/2000/svg" viewBox="0 0 155 162"><title>dragon_1</title><g id="Layer_2" data-name="Layer 2"><g id="Layer_1-2" data-name="Layer 1"><g id="Layer_1-2-2" data-name="Layer 1-2"><path d="M65.31,143.92,62.6,124.17l-4.22-31L63.59,98,83.48,109.9l8,7.13,3,4.76,4,9.51,1,7.14-2,7.93-2,4-2,3.17-4,4-3,2.38h-4l-8-2.38-2.83-1.84c-.6-1.43-1.31-2.94-2.14-4.5a60.24,60.24,0,0,0-4.09-6.6Z"/><path d="M.94,66.89a72.68,72.68,0,0,0,3,35.23c7.19,21,22.11,33.67,28.84,38.75l12.93-22L8.19,65.55Z"/><path d="M91.44,74.22a2.41,2.41,0,0,0,1.28-.74c.63-.76.07-1.55.71-2.43a2.55,2.55,0,0,1,1-.79,5.14,5.14,0,0,1,3-1.59,6.18,6.18,0,0,1,4.49,1.06l8.43-1.85,26.86-11.1.8-1.14.45-4.8-1.25-.4-3-.8L102.92,36.49C70.25,40.35,50.51,41,17.84,44.89c0,.18-6.66,3.72-7,4L6.9,52c-1,.79-1.1.63-3,3.17-1.19,1.62-1.22,4.53-2,5.53,2.32,2.12,3.65,2.66,6,4.78l51,75.09,7.4,5.2q-2.91-25.48-5.83-51c-.43-.36-1.08-.92-1.89-1.58-2.47-2-4.34-3.48-5-4-4-3.13-7.18-5.56-9.95-8.72a33.51,33.51,0,0,1-4.46-6.51L37.73,63.91l7-15.06,27.84-2.38,12.93,6.34,4,15.07.37,1.93-.4,4.81,0,0,1,.37Z"/><path d="M61.53,114.54c.19.21.39.41.56.62,1.46,1.83,2.9,3.67,4.37,5.48a27.73,27.73,0,0,0,4.48,4.52,19.41,19.41,0,0,0,5.46,3,12.4,12.4,0,0,1,4.15,2.39c1.24,1.11,2.41,2.27,3.62,3.41.67.62,1.33,1.23,2,1.83a4.63,4.63,0,0,0,4.37.91q2.44-.66,4.83-1.41a1.92,1.92,0,0,0,1.6-2.12c-.77-5.74-2.4-11.27-6.45-16.19a26.68,26.68,0,0,0-4-4l-1.91-1.54a5.8,5.8,0,0,0-.74-.53,2.24,2.24,0,0,0-2.67.15.49.49,0,0,0-.12.13,2.54,2.54,0,0,0-.64,1.09,5.67,5.67,0,0,0-.11,3c.21.75,0,1.14-.57,1.39a1.78,1.78,0,0,1-1.87-.33,27.92,27.92,0,0,0-12-5c-1.45-.29-3-.37-4.46-.55l-.59-.06-.27-1.94a14.6,14.6,0,0,1,3.17.15,33.31,33.31,0,0,1,8.59,2.38,14.25,14.25,0,0,1,3.79,1.93,2.51,2.51,0,0,0,.51.29c.63.28,1.14.23,1.48-.26.7-1.06,1.37-2.14,2-3.24.42-.77.06-1.46-.69-2a4.5,4.5,0,0,0-.8-.46,79.24,79.24,0,0,1-13.24-7.75c-1-.73-2-1.5-3.06-2.25a6.36,6.36,0,0,0-.69-.46,1.1,1.1,0,0,0-1.68.37,4.13,4.13,0,0,0-.32.75,2.35,2.35,0,0,1-.36.77c-.28-2-.56-3.91-.85-6l.88.6a148.37,148.37,0,0,0,13.22,8.76q2.13,1.22,4.32,2.36a54,54,0,0,1,14.91,11,30.54,30.54,0,0,1,7,12.43,37.5,37.5,0,0,1,1.53,10.43,21.56,21.56,0,0,1-5.58,14.8c-1.36,1.56-2.61,3.17-3.92,4.76a2.27,2.27,0,0,1-.8.66c-2.39,1.06-4.8,2.12-7.28,3.17-.28-.15-.57-.32-.88-.47-1.46-.7-2.91-1.45-4.4-2.13a9.68,9.68,0,0,0-1.85-.57,4.71,4.71,0,0,1-3.58-2.71l-.44-1.06,1,.14c1.32.28,2.65.59,4,.84a9.66,9.66,0,0,0,2.79,0l-.54-.57c-1.9-1.78-3.8-3.55-5.68-5.33a35.9,35.9,0,0,0-6.53-4.76c-.73-.43-1.23-.88-1.15-1.64a3.38,3.38,0,0,0-.07-.63c1.21.63,2.33,1.26,3.53,1.82a16.89,16.89,0,0,0,3.82,1.31c-1.18-6.83-2.39-13.58-5.9-19.87l-.22,0a11.64,11.64,0,0,0,.09,1.45c.22,1.38.48,2.76.71,4.14a10,10,0,0,1,.1,3.74,2,2,0,0,1-.39.91c-.12-.26-.24-.53-.33-.79-.61-2.18-1.22-4.36-1.8-6.55A9.12,9.12,0,0,0,63,125.59a1.53,1.53,0,0,1-.31-.8c-.4-2.85-.78-5.69-1.16-8.54-.07-.54-.15-1.09-.22-1.64Zm15.69,15.87a2.79,2.79,0,0,0,.47,2.39,31.5,31.5,0,0,1,5.2,21.14,5.19,5.19,0,0,1-1,2.89,1.29,1.29,0,0,0-.17.33c-.29.71-.06,1.17.82,1.35a20.13,20.13,0,0,0,3,.37,2.75,2.75,0,0,0,2.76-1.55c.1-.2.15-.41.24-.62a3.46,3.46,0,0,1,1.59-1.87,12.51,12.51,0,0,0,6.16-7.32,35.84,35.84,0,0,0,1.26-6.11,11.73,11.73,0,0,0,.19-1.86c0-1.25-.88-1.92-2.42-1.93a8.75,8.75,0,0,0-1.53.11,17.83,17.83,0,0,0-8.56,3.62,5,5,0,0,1-.5.29,1.63,1.63,0,0,1,0-.31,6.18,6.18,0,0,0-1.7-6,17.22,17.22,0,0,0-1.52-1.43c-.94-.78-1.93-1.52-2.89-2.28-.45-.38-.89-.75-1.47-1.22ZM80.5,153.5v-.41a52.83,52.83,0,0,0-2-10,37.92,37.92,0,0,0-6.75-12.52c-.16-.19-.34-.38-.51-.56a.28.28,0,0,0-.09.27c.61,2.38,1.24,4.75,1.85,7.13a47.15,47.15,0,0,1,1.4,7.33,11.93,11.93,0,0,0,.44,2.28c.79,2.69,2.9,4.7,5.41,6.49,0,0,.11,0,.23,0Z"/><polygon points="116.54 64 131.91 58 138.18 59.95 149.12 71.05 147.13 77.39 144.15 81.36 138.18 82.94 127.24 75.81 116.3 66.29 116.54 64"/><path d="M129.79,58.83l8.2-3.21c.14.48.22.9.38,1.3a6.12,6.12,0,0,0,2,2.4,77.28,77.28,0,0,1,7.88,7.42c.39.4.77.8,1.19,1.18a5.83,5.83,0,0,0,.91.71,1.27,1.27,0,0,0,1.89-.27,3.23,3.23,0,0,0,.53-.91,5.57,5.57,0,0,1,1.42-1.84,4.76,4.76,0,0,1,.25.57,11.24,11.24,0,0,1-2.48,11.28,24.08,24.08,0,0,1-4.82,4.37,16.15,16.15,0,0,1-5.27,2.3,29.28,29.28,0,0,0-6.35,2.22,19.51,19.51,0,0,0-4,2.6,5.93,5.93,0,0,1-1.08.75,1.31,1.31,0,0,1-1.48-.15.69.69,0,0,1-.12-1.06c.15-.21.31-.41.48-.61a6.74,6.74,0,0,0,1.77-5.39,7.1,7.1,0,0,0-1.39-3.1,16.58,16.58,0,0,0-3.29-3.24,32.58,32.58,0,0,0-7.77-4.55,21,21,0,0,0-9.82-1.37A4.61,4.61,0,0,0,105,72.34a4.08,4.08,0,0,1-.6.8,1.32,1.32,0,0,1-1.29.33,1.07,1.07,0,0,1-.93-.89,2.29,2.29,0,0,1,0-.64,2.7,2.7,0,0,0-.3-2.21c.53-.22,1-.44,1.59-.65,4.38-1.71,8.77-3.41,13.14-5.14a1.89,1.89,0,0,1,1.58,0,22.89,22.89,0,0,1,8,5.53c.82.89,1.57,1.82,2.3,2.76a23.33,23.33,0,0,0,3.83,4A16,16,0,0,0,139,79.4a13.73,13.73,0,0,1,1.42.44c.39.14.76.3,1.15.41a1.2,1.2,0,0,0,1.24-.23c.34-.32.58-.7.32-1.12a3,3,0,0,0-.68-.76,14.12,14.12,0,0,0-2.73-1.61c-1.94-.92-3.8-1.94-5.65-3a33.1,33.1,0,0,1-3-1.91,13.6,13.6,0,0,1-3.84-4.15,13.86,13.86,0,0,0-3.68-4.23c-.58-.43-1.23-.81-1.93-1.27.83-.33,1.59-.66,2.39-.93a1.25,1.25,0,0,1,.74.13A11.91,11.91,0,0,1,129,64a44,44,0,0,0,4.92,4.6,18.29,18.29,0,0,0,7.64,3.57l.71.1a1,1,0,0,0-.31-1c-.17-.2-.36-.39-.53-.59-.44-.53-.44-.86,0-1.22a1.34,1.34,0,0,1,1.6-.16l.09.06c.45.27.8.59,1.22.86a1.8,1.8,0,0,0,1.57.3l-.6-.68a82,82,0,0,0-7-6.24c-1.62-1.35-3.22-2.73-4.82-4.1-.75-.64-1.17-.71-1.93-.24C130.67,59.88,130.48,59.84,129.79,58.83Z"/><path d="M92.69,73.52l-2.32,1.62-1-.53,3.17-1.23Z"/><polyline points="42.71 29.82 30.77 35.37 20.83 43.3 10.88 51.23 10.8 54.15 34.16 70.5 38.73 57.57 51.66 45.68 71.55 44.88 83.48 52.81 84.48 55.98 83.48 60.74 85.47 63.91 92.81 68.65 112.14 61.11 136.7 51.52 82.49 26.65 66.58 25.86"/><path d="M77.61,21.12a77.11,77.11,0,0,1,18.8,3.94,67,67,0,0,1,17.41,9,15,15,0,0,1,3.5,1.84h0a2.66,2.66,0,0,0,2.47.32c.88-.3,1.67-5.2-1.33-13.2-2.5-6.68-9-23-9-23-.48-.14,6,5.18,12.72,11.17a31.15,31.15,0,0,1,9.93,18.06,45.32,45.32,0,0,0,1.09,5.35l1.21,10.57c.27.11.54.22.8.35a1.4,1.4,0,0,1,.93,1.27,12.75,12.75,0,0,0,.09,1.51,2.8,2.8,0,0,0,1.94,2.37,1.54,1.54,0,0,1,.27.19l-12,4.69c-.15-.1-.27-.17-.37-.25a44,44,0,0,0-10.66-6c-3.34-1.39-6.66-2.82-10-4.19a46.16,46.16,0,0,0-9.5-2.92L94,41.81s-.1-.05-.15-.09c5.28-.08,10.12,1.31,15,2.76l-.31-.25a3.13,3.13,0,0,0-.36-.22c-2.14-1.07-4.25-2.19-6.44-3.21a127.85,127.85,0,0,0-13.88-5.55c-1-.31-2-.57-3.12-.9.06.35.08.59.14.81.29,1.06.62,2.11.89,3.17a3.34,3.34,0,0,1-1.48,3.73,10.68,10.68,0,0,0-2.07,2.07A3.68,3.68,0,0,0,82,48.61a12,12,0,0,0,2.69,2.88c.34.3.62.65.94,1a8.58,8.58,0,0,0,.85.73c1.21.85,1.33,1.44.41,2.49a9.79,9.79,0,0,0-1.93,3,3.45,3.45,0,0,0,.94,4.12c1.19,1.09,2.4,2.16,3.67,3.18.88.7,1.87,1.35,2.82,2l.81.52-3.35,1.31c-.08-.2-.15-.35-.2-.51A8,8,0,0,0,85.76,65c-.83-.48-1.74-.86-2.62-1.28-.46-.19-.9-.4-1.33-.63a1.12,1.12,0,0,1-.57-1.6A13,13,0,0,1,82,60.34a19.09,19.09,0,0,0,1.33-2.19c.88-2,.24-3.66-1.87-4.92a10.86,10.86,0,0,0-2.09-1,64.87,64.87,0,0,0-12.07-3.15A31.26,31.26,0,0,0,53.39,50a17.25,17.25,0,0,0-7.59,4.61,30.2,30.2,0,0,0-4.42,6,10.51,10.51,0,0,0-1.15,4.27c-.18,1.58-.28,3.17-.55,4.73a16.91,16.91,0,0,0-.38,4.48L28.78,66.73c.69-1,1.93-1.14,3.14-1.47-.23-.1-.38-.18-.54-.23a4.45,4.45,0,0,1-2.89-2.71c-.29-.85-.48-1.74-.73-2.6-.14-.46-.31-.91-.53-1.55a16,16,0,0,0-2.82,5.37A4.41,4.41,0,0,1,23,62.61a.45.45,0,0,1-.07-.46,21.93,21.93,0,0,1,2.51-6.45,7.48,7.48,0,0,0,.83-6.8,45.17,45.17,0,0,0-2-4.85c-.62-1.29-1.44-1.41-2.71-.49a20,20,0,0,0-6,7c-.5,1-.88,2-1.33,3a3,3,0,0,0-.09,2.79c-1.35-.82,0,.13-5.86-5.08A61.78,61.78,0,0,1,43.7,22.86,70.14,70.14,0,0,1,77.61,21.12Zm26.61,10.3-.26.52-23.4,0a2.51,2.51,0,0,1,1.56-.16c.59.08,1.18.2,1.77.24.88.05,1.27-.23,1.42-.92s-.15-1.19-1.19-1.32a33.22,33.22,0,0,1-4-.89c-1.11-.29-2.25-.52-3.39-.75a36,36,0,0,0-5.31-.82,5.69,5.69,0,0,0-4.23,1.28A10.3,10.3,0,0,0,66,29.82c-1,1.25-2,2.52-3,3.8a3.56,3.56,0,0,0-.49.92.71.71,0,0,0,.54,1l.1,0a6.92,6.92,0,0,0,1.22.23c2.47.3,5,.53,7.41.88a23,23,0,0,1,6.59,1.67,4.5,4.5,0,0,0,.76.24c1.65.45,3.09-.24,3.25-1.63a3,3,0,0,0-.16-1.49c-.31-.8-.79-1.55-1.18-2.33C80.87,32.72,80.73,32.32,80.56,31.93ZM42,37.75h.09a4.17,4.17,0,0,0,0,.5c.11.74.62,1.09,1.54,1a8.67,8.67,0,0,0,1.54-.38c.84-.28,1.64-.61,2.46-.91a40.08,40.08,0,0,1,7.58-2.11,10.7,10.7,0,0,0,5.21-2.31A14.54,14.54,0,0,0,63.93,29a2.24,2.24,0,0,0,.19-.55c.14-.73-.2-1.11-1.13-1.17a5.32,5.32,0,0,0-1.26.05l-7.38,1.05-8,1.15a2.83,2.83,0,0,0-2.65,2.05c-.3,1.13-.69,2.24-1,3.37C42.4,35.91,42.19,36.83,42,37.75Zm-.2-6.19c-.47.14-.89.24-1.26.36A26,26,0,0,0,35,34.53c-1.61,1-3.27,1.89-4.89,2.82a15.4,15.4,0,0,0-1.41.9,5.19,5.19,0,0,0-2.3,5,21.1,21.1,0,0,0,1.22,4,1.65,1.65,0,0,0,.44.62,1.39,1.39,0,0,0,2.11-.11,13.91,13.91,0,0,1,2.45-2.46,7,7,0,0,1,2.29-1.46A8,8,0,0,0,39,40.61,11.26,11.26,0,0,0,40.23,38C40.79,35.89,41.24,33.78,41.77,31.56Zm9,7.49c-.22,0-.44.06-.65.1-1.19.33-2.41.61-3.57,1-2.42.85-4.81,1.77-7.2,2.66a8.11,8.11,0,0,0-1.57.84,3.24,3.24,0,0,0-1.63,3,11.08,11.08,0,0,1,0,2.51c-.14.85.4,1.32,1.45,1.24A15.72,15.72,0,0,0,40.41,50c1.56-.42,2.1-1.33,1.7-2.62-.12-.35-.28-.74-.37-1.12-.29-1.19.22-2,1.62-2.5a17.43,17.43,0,0,1,1.79-.48,7.89,7.89,0,0,0,5.65-4.2Z"/><path d="M96,44.71a2.44,2.44,0,0,1,.11,1.7,3.35,3.35,0,0,0,.45,2.74A19.44,19.44,0,0,0,97.8,51c1,1.38,1.81,2.78,1.32,4.4.13.06.18.12.23.11a3.22,3.22,0,0,1,2,.5c1,.48,2.09.84,3.14,1.25s2.25.81,3.32,1.3a5.2,5.2,0,0,1,2.71,2.52,2.55,2.55,0,0,1,.14.35,1.22,1.22,0,0,1,0,.27l-2.88,1.14c-2,.79-4.08,1.55-6.08,2.39a2.41,2.41,0,0,1-2.34-.18A6.21,6.21,0,0,1,98,63.88c-.73-.8-1.37-1.64-2.08-2.44a12.22,12.22,0,0,1-3.14-9,12.09,12.09,0,0,1,2.58-7C95.57,45.24,95.76,45,96,44.71Z"/><path d="M111.56,61.35a.86.86,0,0,1,.38-1.09l.85.58Z"/><path d="M52.65,134.48c-.31-.27-.64-.53-1-.8a21.45,21.45,0,0,0-6.89-3.27,8.64,8.64,0,0,0-1.07-3.86,7.89,7.89,0,0,0-2.84-3.25c-3.16-1.92-7.48-.88-8.1-.72-2.09-3.55-5.34-8-4-8.72.6-.34,2.47.26,3,0,1-.51.1-4.16-8-17.44Q15.37,81,6.9,65.5l1-7.93L23.43,68.51,50.66,90.87l2.5,2.3,6.26,45.46Z"/><path d="M19.66,100.8m13.81,21.63c.21-2.59-.91-4.71-3.61-6.24a5.15,5.15,0,0,0-.79-.36m-17.6-31.9a7.8,7.8,0,0,1-2.18-1.77l-.4-.8A15.52,15.52,0,0,1,6.9,79a12.3,12.3,0,0,1-2-5.55l-2-4.76c-.35-1.28-.68,2.22-1,.86-.39-1.71-.7-1-1-2.64,0-.19,0,3.32,0-4.4a20.93,20.93,0,0,1,1.32-5.14,13.7,13.7,0,0,1,1.8-2.23A85.67,85.67,0,0,1,11.6,60.3c-1.24,3.52-.24,6.75,2,9.81a6.73,6.73,0,0,0,4,2.65c.88.22,1.77.51,2.65.71s1.44,0,1.54-.8c.14-1,.1-2.06.14-3.1,0-.59.07-1.18.11-1.9.22.11.44.23.64.35l3.5,2.61a5.2,5.2,0,0,0,.44.35c3.53,2.12,6.74,4.58,10.09,6.89,3.79,2.61,7.52,5.27,11.3,7.89a11.7,11.7,0,0,1,5.12,6.95,1,1,0,0,1,0,.64l-.65-.5a60.35,60.35,0,0,0-16.9-9.52A24.17,24.17,0,0,0,30.51,82a7.5,7.5,0,0,0-1.09-.13c5.46,7.93,13.18,13.23,24.35,15l.27,2c-1.57-.45-3-.9-4.49-1.29a23.4,23.4,0,0,0-4.65-.77c.14.2.21.32.31.44l7.07,8.1a11.3,11.3,0,0,0,2.57,2.22.87.87,0,0,1,.41.52c.23,1.59.44,3.19.52,4.84h-.05a31.9,31.9,0,0,0-5.25-6.14,19,19,0,0,0-9.8-4.74,37,37,0,0,0-3.94-.35,10.1,10.1,0,0,1-2.4-.28,4.25,4.25,0,0,0-.71-.14,1.41,1.41,0,0,0-1.63.86.86.86,0,0,0,0,.5,4.83,4.83,0,0,0,.35.81,18.84,18.84,0,0,1,.88,1.81c1.52,3.75,4.43,6.67,8.32,9a61,61,0,0,0,9.2,4.42c2,.81,4.08,1.53,6.23,2.34.08.52.17,1.16.27,1.88a4.43,4.43,0,0,1-.73-.11c-1.45-.52-2.95-1-4.33-1.61-1.77-.8-3.47-1.73-5.2-2.62a19.34,19.34,0,0,0-4.69-1.81c-.17,0-.34,0-.67-.1.38.53.68,1,1,1.41.6.8,1.27,1.58,1.81,2.41a10.1,10.1,0,0,1,1,2,3.19,3.19,0,0,1-.3,2.67,11.18,11.18,0,0,0-.65,1.41c-.44,1.29,0,2.19,1.44,2.89.26.12.53.22.8.33.82.35.93.67.48,1.44-.63-.23-1.24-.49-1.88-.67-1.69-.5-3.39-1-5.1-1.45a30.51,30.51,0,0,1-6.19-2.2c-.16-.09-.56-.63-.89-1a4.26,4.26,0,0,1-.9-1.28L24,107.18a35.3,35.3,0,0,0-.79-4.2,4,4,0,0,0-.78-1.52L13.76,86.61l-.68-1.15A4.24,4.24,0,0,0,11.47,83.93Zm29.75,16.76.63,0c.21,0,.42,0,.63,0,.65,0,.89-.21.8-.72a2.1,2.1,0,0,0-.48-1c-.75-.84-1.56-1.65-2.35-2.47a48.86,48.86,0,0,0-5.41-5A22.79,22.79,0,0,0,25.23,87c-.67-.12-1.32-.26-2-.35-1.2-.14-1.85.5-1.43,1.41a4.12,4.12,0,0,0,.33.62l2.26,3.44c1.12,1.7,2.25,3.4,3.36,5.1A3.82,3.82,0,0,0,30.53,99c1.42.2,2.8.54,4.22.77A41.34,41.34,0,0,0,41.22,100.69ZM29.78,86.14a2.48,2.48,0,0,0-.13-.35c-1.77-2.49-3.48-5-5.3-7.47a13.92,13.92,0,0,0-1.84-1.93C20.9,75,18.72,75,16.46,74.92c.08.6.14,1.12.22,1.65a19.28,19.28,0,0,0,1.06,4.23,6.72,6.72,0,0,0,4.8,4c1.53.41,3.12.7,4.7,1,.8.16,1.64.23,2.54.35Z"/><path d="M52.49,132.26a6.65,6.65,0,0,1,.67.47L59.07,138a.84.84,0,0,1,.31.42c.14.87.25,1.73.38,2.73-.31-.19-.51-.3-.68-.42a22.3,22.3,0,0,1-5.35-5.21,6.73,6.73,0,0,0-1-1A1.51,1.51,0,0,1,52.49,132.26Z"/></g></g></g></svg>